<?xml version="1.0" encoding="UTF-8" standalone="no"?>
<!-- Created with Inkscape (http://www.inkscape.org/) -->

<svg
   xmlns:dc="http://purl.org/dc/elements/1.1/"
   xmlns:cc="http://creativecommons.org/ns#"
   xmlns:rdf="http://www.w3.org/1999/02/22-rdf-syntax-ns#"
   xmlns:svg="http://www.w3.org/2000/svg"
   xmlns="http://www.w3.org/2000/svg"
   xmlns:sodipodi="http://sodipodi.sourceforge.net/DTD/sodipodi-0.dtd"
   xmlns:inkscape="http://www.inkscape.org/namespaces/inkscape"
   width="1008.88"
   height="170.03751"
   id="svg3221"
   version="1.1"
   inkscape:version="0.48.4 r9939"
   sodipodi:docname="New document 6">
  <defs
     id="defs3223">
    <clipPath
       clipPathUnits="userSpaceOnUse"
       id="clipPath18">
      <path
         inkscape:connector-curvature="0"
         d="m 0,841.89 1190.55,0 L 1190.55,0 0,0 0,841.89 z"
         id="path20" />
    </clipPath>
  </defs>
  <sodipodi:namedview
     id="base"
     pagecolor="#ffffff"
     bordercolor="#666666"
     borderopacity="1.0"
     inkscape:pageopacity="0.0"
     inkscape:pageshadow="2"
     inkscape:zoom="0.35"
     inkscape:cx="375"
     inkscape:cy="519.99997"
     inkscape:document-units="px"
     inkscape:current-layer="layer1"
     showgrid="false"
     fit-margin-top="0"
     fit-margin-left="0"
     fit-margin-right="0"
     fit-margin-bottom="0"
     inkscape:window-width="1920"
     inkscape:window-height="1150"
     inkscape:window-x="0"
     inkscape:window-y="0"
     inkscape:window-maximized="1" />
  <metadata
     id="metadata3226">
    <rdf:RDF>
      <cc:Work
         rdf:about="">
        <dc:format>image/svg+xml</dc:format>
        <dc:type
           rdf:resource="http://purl.org/dc/dcmitype/StillImage" />
        <dc:title></dc:title>
      </cc:Work>
    </rdf:RDF>
  </metadata>
  <g
     inkscape:label="Layer 1"
     inkscape:groupmode="layer"
     id="layer1"
     transform="translate(0,-882.32465)">
    <g
       id="g14"
       transform="matrix(1.25,0,0,-1.25,-232.0795,1535.7884)">
      <g
         id="g16"
         clip-path="url(#clipPath18)">
        <g
           id="g22"
           transform="translate(352.6875,431.6045)">
          <path
             d="m 0,0 c 0,-3.353 -2.724,-6.073 -6.074,-6.073 l -17.187,0 c -3.352,0 -6.072,2.72 -6.072,6.073 l 0,46.01 c 0,3.349 2.72,6.078 6.072,6.078 l 17.187,0 C -2.724,52.088 0,49.359 0,46.01 L 0,0 z m -6.074,65.737 -17.187,0 c -10.872,0 -19.728,-8.858 -19.728,-19.727 l 0,-46.01 c 0,-10.878 8.856,-19.723 19.728,-19.723 l 17.187,0 c 10.867,0 19.722,8.845 19.722,19.723 l 0,46.01 c 0,10.869 -8.855,19.727 -19.722,19.727"
             style="fill:#ffffff;fill-opacity:1;fill-rule:nonzero;stroke:none"
             id="path24"
             inkscape:connector-curvature="0" />
        </g>
        <g
           id="g26"
           transform="translate(185.6636,477.6143)">
          <path
             d="m 0,0 0,-46.01 c 0,-10.878 8.851,-19.722 19.724,-19.722 l 28.817,0 0,13.649 -28.817,0 c -3.351,0 -6.074,2.72 -6.074,6.073 l 0,16.196 19.122,0 0,13.618 -19.122,0 0,16.196 c 0,3.35 2.723,6.078 6.074,6.078 l 28.817,0 0,13.649 -28.817,0 C 8.851,19.727 0,10.87 0,0"
             style="fill:#ffffff;fill-opacity:1;fill-rule:nonzero;stroke:none"
             id="path28"
             inkscape:connector-curvature="0" />
        </g>
        <g
           id="g30"
           transform="translate(298.6489,472.0586)">
          <path
             d="m 0,0 0,5.556 c 0,10.869 -8.856,19.727 -19.733,19.727 l -17.181,0 c -10.882,0 -19.722,-8.858 -19.722,-19.727 l 0,-46.01 c 0,-10.878 8.84,-19.723 19.722,-19.723 l 17.181,0 C -8.856,-60.177 0,-51.332 0,-40.454 l 0,14.662 0,13.658 -13.655,0 -17.811,0 0,-13.658 17.811,0 0,-14.662 c 0,-3.353 -2.727,-6.073 -6.078,-6.073 l -17.181,0 c -3.351,0 -6.075,2.72 -6.075,6.073 l 0,46.01 c 0,3.349 2.724,6.078 6.075,6.078 l 17.181,0 c 3.351,0 6.078,-2.729 6.078,-6.078 L -13.655,0 0,0 z"
             style="fill:#ffffff;fill-opacity:1;fill-rule:nonzero;stroke:none"
             id="path32"
             inkscape:connector-curvature="0" />
        </g>
        <path
           d="m 397.829,386.741 -4.107,0 0,136.03 4.107,0 0,-136.03 z"
           style="fill:#ffffff;fill-opacity:1;fill-rule:nonzero;stroke:none"
           id="path34"
           inkscape:connector-curvature="0" />
        <g
           id="g36"
           transform="translate(435.2837,452.4995)">
          <path
             d="m 0,0 0,-31.662 17.653,0 c 6.831,0 11.973,1.323 15.427,3.964 3.453,2.644 5.178,6.782 5.178,12.417 0,5.247 -1.765,9.108 -5.295,11.577 C 29.432,-1.236 24.058,0 16.843,0 L 0,0 z m 0,8.333 16.207,0 c 6.944,0 11.941,1.092 14.991,3.272 3.048,2.18 4.572,5.856 4.572,11.024 0,4.749 -1.7,8.171 -5.093,10.276 -3.396,2.104 -8.799,3.153 -16.206,3.153 L 0,36.058 0,8.333 z m -9.839,36.235 23.905,0 c 11.228,0 19.35,-1.681 24.367,-5.036 5.017,-3.358 7.525,-8.661 7.525,-15.917 0,-5.015 -1.4,-9.156 -4.196,-12.416 -2.8,-3.258 -6.88,-5.374 -12.243,-6.336 l 0,-0.577 c 12.849,-2.202 19.274,-8.956 19.274,-20.261 0,-7.566 -2.557,-13.467 -7.669,-17.711 -5.114,-4.246 -12.261,-6.367 -21.444,-6.367 l -29.519,0 0,84.621 z"
             style="fill:#94908f;fill-opacity:1;fill-rule:nonzero;stroke:none"
             id="path38"
             inkscape:connector-curvature="0" />
        </g>
        <g
           id="g40"
           transform="translate(503.728,456.0894)">
          <path
             d="m 0,0 13.486,0 c 6.946,0 12.039,1.38 15.28,4.138 3.241,2.757 4.861,6.897 4.861,12.414 0,5.597 -1.648,9.627 -4.947,12.096 -3.3,2.47 -8.595,3.705 -15.888,3.705 L 0,32.353 0,0 z m 0,-8.453 0,-35.19 -9.84,0 0,84.621 23.211,0 c 10.379,0 18.049,-1.989 23.006,-5.961 4.958,-3.975 7.437,-9.955 7.437,-17.941 0,-11.194 -5.671,-18.758 -17.014,-22.69 l 22.976,-38.029 -11.633,0 -20.49,35.19 -17.653,0 z"
             style="fill:#94908f;fill-opacity:1;fill-rule:nonzero;stroke:none"
             id="path42"
             inkscape:connector-curvature="0" />
        </g>
        <g
           id="g44"
           transform="translate(584.5156,454.7559)">
          <path
             d="m 0,0 22.571,42.312 10.651,0 -28.245,-51.803 0,-32.819 -9.956,0 0,32.354 -28.188,52.268 10.767,0 L 0,0 z"
             style="fill:#94908f;fill-opacity:1;fill-rule:nonzero;stroke:none"
             id="path46"
             inkscape:connector-curvature="0" />
        </g>
        <g
           id="g48"
           transform="translate(659.6621,456.7852)">
          <path
             d="m 0,0 28.768,0 0,-41.156 c -4.478,-1.428 -9.03,-2.508 -13.662,-3.241 -4.629,-0.734 -9.993,-1.099 -16.088,-1.099 -12.813,0 -22.786,3.81 -29.926,11.431 -7.139,7.619 -10.707,18.298 -10.707,32.036 0,8.797 1.764,16.506 5.296,23.125 3.529,6.617 8.616,11.67 15.251,15.165 6.637,3.492 14.414,5.236 23.324,5.236 9.033,0 17.445,-1.66 25.238,-4.976 L 23.676,27.837 C 16.032,31.082 8.682,32.7 1.623,32.7 c -10.305,0 -18.349,-3.068 -24.138,-9.204 -5.788,-6.133 -8.682,-14.642 -8.682,-25.525 0,-11.424 2.788,-20.085 8.365,-25.988 5.574,-5.904 13.765,-8.856 24.568,-8.856 5.865,0 11.597,0.678 17.19,2.027 l 0,26.046 L 0,-8.8 0,0 z"
             style="fill:#94908f;fill-opacity:1;fill-rule:nonzero;stroke:none"
             id="path50"
             inkscape:connector-curvature="0" />
        </g>
        <g
           id="g52"
           transform="translate(740.3867,456.7852)">
          <path
             d="m 0,0 28.765,0 0,-41.156 c -4.473,-1.428 -9.027,-2.508 -13.659,-3.241 -4.627,-0.734 -9.994,-1.099 -16.09,-1.099 -12.812,0 -22.786,3.81 -29.925,11.431 -7.137,7.619 -10.708,18.298 -10.708,32.036 0,8.797 1.765,16.506 5.298,23.125 3.531,6.617 8.616,11.67 15.249,15.165 6.639,3.492 14.414,5.236 23.328,5.236 9.029,0 17.443,-1.66 25.236,-4.976 L 23.676,27.837 C 16.032,31.082 8.684,32.7 1.623,32.7 c -10.306,0 -18.35,-3.068 -24.137,-9.204 -5.788,-6.133 -8.681,-14.642 -8.681,-25.525 0,-11.424 2.785,-20.085 8.362,-25.988 5.574,-5.904 13.766,-8.856 24.569,-8.856 5.864,0 11.597,0.678 17.19,2.027 l 0,26.046 L 0,-8.8 0,0 z"
             style="fill:#94908f;fill-opacity:1;fill-rule:nonzero;stroke:none"
             id="path54"
             inkscape:connector-curvature="0" />
        </g>
        <g
           id="g56"
           transform="translate(848.0537,412.4463)">
          <path
             d="m 0,0 -9.842,0 0,39.821 -44.567,0 0,-39.821 -9.84,0 0,84.621 9.84,0 0,-36.002 44.567,0 0,36.002 9.842,0 L 0,0 z"
             style="fill:#94908f;fill-opacity:1;fill-rule:nonzero;stroke:none"
             id="path58"
             inkscape:connector-curvature="0" />
        </g>
        <g
           id="g60"
           transform="translate(928.1914,497.0674)">
          <path
             d="m 0,0 0,-54.754 c 0,-9.647 -2.911,-17.23 -8.736,-22.749 -5.83,-5.518 -13.834,-8.275 -24.024,-8.275 -10.184,0 -18.07,2.778 -23.643,8.334 -5.576,5.558 -8.364,13.196 -8.364,22.921 l 0,54.523 9.841,0 0,-55.219 c 0,-7.06 1.927,-12.485 5.785,-16.267 3.862,-3.779 9.534,-5.669 17.019,-5.669 7.14,0 12.64,1.9 16.496,5.701 3.856,3.8 5.788,9.254 5.788,16.351 L -9.838,0 0,0 z"
             style="fill:#94908f;fill-opacity:1;fill-rule:nonzero;stroke:none"
             id="path62"
             inkscape:connector-curvature="0" />
        </g>
        <g
           id="g64"
           transform="translate(992.7676,434.9624)">
          <path
             d="m 0,0 c 0,-7.446 -2.701,-13.255 -8.104,-17.422 -5.398,-4.167 -12.733,-6.251 -21.995,-6.251 -10.031,0 -17.748,1.291 -23.151,3.877 l 0,9.493 c 3.474,-1.468 7.256,-2.628 11.346,-3.471 4.088,-0.853 8.141,-1.276 12.153,-1.276 6.56,0 11.5,1.246 14.817,3.732 3.319,2.488 4.98,5.954 4.98,10.393 0,2.93 -0.589,5.334 -1.767,7.206 -1.175,1.87 -3.144,3.597 -5.904,5.178 -2.759,1.582 -6.955,3.376 -12.587,5.384 -7.873,2.816 -13.5,6.155 -16.874,10.014 -3.375,3.855 -5.061,8.893 -5.061,15.104 0,6.521 2.448,11.713 7.346,15.571 4.904,3.856 11.387,5.787 19.449,5.787 8.414,0 16.151,-1.543 23.212,-4.627 l -3.068,-8.568 c -6.984,2.93 -13.779,4.399 -20.376,4.399 -5.207,0 -9.277,-1.121 -12.214,-3.358 -2.932,-2.238 -4.395,-5.345 -4.395,-9.319 0,-2.931 0.537,-5.336 1.62,-7.206 1.079,-1.871 2.902,-3.588 5.469,-5.15 2.565,-1.566 6.492,-3.293 11.778,-5.182 8.875,-3.163 14.982,-6.557 18.319,-10.187 C -1.671,10.498 0,5.787 0,0"
             style="fill:#94908f;fill-opacity:1;fill-rule:nonzero;stroke:none"
             id="path66"
             inkscape:connector-curvature="0" />
        </g>
      </g>
    </g>
  </g>
</svg>
